<svg version="1.1" viewBox="0.0 0.0 263.7270341207349 100.0" fill="none" stroke="none" stroke-linecap="square" stroke-miterlimit="10" xmlns:xlink="http://www.w3.org/1999/xlink" xmlns="http://www.w3.org/2000/svg"><clipPath id="p.0"><path d="m0 0l263.72702 0l0 100.0l-263.72702 0l0 -100.0z" clip-rule="nonzero"/></clipPath><g clip-path="url(#p.0)"><path fill="#000000" fill-opacity="0.0" d="m0 0l263.72702 0l0 100.0l-263.72702 0z" fill-rule="evenodd"/><path fill="#b3ddf2" d="m0.22309712 0l213.08661 0l0 0c13.260834 0 25.97853 5.267842 35.355347 14.644661c9.376816 9.37682 14.644669 22.094513 14.644669 35.35534l0 50.0l-263.08664 0z" fill-rule="evenodd"/><path fill="#ff0000" d="m50.856857 76.838745q-5.828125 0 -10.90625 -2.234375q-5.078125 -2.234375 -8.937502 -6.21875q-3.84375 -4.0 -6.0 -9.21875q-2.15625 -5.21875 -2.15625 -11.203125q0 -5.90625 2.125 -11.125q2.125 -5.21875 5.96875 -9.171875q3.859377 -3.96875 8.921877 -6.234375q5.078125 -2.265625 10.984375 -2.265625q5.1875 0 9.4375 1.515625q4.25 1.515625 8.203125 4.828125q0.65625 0.5 0.75 1.1875q0.109375 0.671875 -0.171875 1.296875q-0.28125 0.609375 -0.859375 0.890625q-0.140625 0.578125 -0.71875 0.875q-0.578125 0.28125 -1.34375 0.21875q-0.75 -0.078125 -1.46875 -0.65625q-2.8125 -2.453125 -6.125 -3.640625q-3.3125 -1.1875 -7.703125 -1.1875q-4.671875 0 -8.75 1.875q-4.0625 1.875 -7.15625 5.109375q-3.093752 3.234375 -4.859377 7.484375q-1.765625 4.25 -1.765625 9.0q0 4.90625 1.765625 9.15625q1.765625 4.234375 4.859377 7.484375q3.09375 3.234375 7.15625 5.078125q4.078125 1.828125 8.75 1.828125q3.96875 0 7.484375 -1.296875q3.53125 -1.296875 6.703125 -3.734375q0.859375 -0.734375 1.828125 -0.578125q0.984375 0.140625 1.703125 0.859375q0.71875 0.71875 0.71875 1.875q0 0.578125 -0.1875 1.046875q-0.171875 0.46875 -0.609375 0.96875q-3.671875 3.375 -8.203125 4.78125q-4.53125 1.40625 -9.4375 1.40625z" fill-rule="nonzero"/><path fill="#ffffff" d="m106.36888 76.838745q-5.828125 0 -10.90625 -2.234375q-5.078125 -2.234375 -8.9375 -6.21875q-3.84375 -4.0 -6.0 -9.21875q-2.15625 -5.21875 -2.15625 -11.203125q0 -5.90625 2.125 -11.125q2.125 -5.21875 5.96875 -9.171875q3.859375 -3.96875 8.921875 -6.234375q5.078125 -2.265625 10.984375 -2.265625q5.1875 0 9.4375 1.515625q4.25 1.515625 8.203125 4.828125q0.65625 0.5 0.75 1.1875q0.109375 0.671875 -0.171875 1.296875q-0.28125 0.609375 -0.859375 0.890625q-0.140625 0.578125 -0.71875 0.875q-0.578125 0.28125 -1.34375 0.21875q-0.75 -0.078125 -1.46875 -0.65625q-2.8125 -2.453125 -6.125 -3.640625q-3.3125 -1.1875 -7.703125 -1.1875q-4.671875 0 -8.75 1.875q-4.0625 1.875 -7.15625 5.109375q-3.09375 3.234375 -4.859375 7.484375q-1.765625 4.25 -1.765625 9.0q0 4.90625 1.765625 9.15625q1.765625 4.234375 4.859375 7.484375q3.09375 3.234375 7.15625 5.078125q4.078125 1.828125 8.75 1.828125q3.96875 0 7.484375 -1.296875q3.53125 -1.296875 6.703125 -3.734375q0.859375 -0.734375 1.828125 -0.578125q0.984375 0.140625 1.703125 0.859375q0.71875 0.71875 0.71875 1.875q0 0.578125 -0.1875 1.046875q-0.171875 0.46875 -0.609375 0.96875q-3.671875 3.375 -8.203125 4.78125q-4.53125 1.40625 -9.4375 1.40625zm55.512024 0q-5.828125 0 -10.90625 -2.234375q-5.078125 -2.234375 -8.9375 -6.21875q-3.84375 -4.0 -6.0 -9.21875q-2.15625 -5.21875 -2.15625 -11.203125q0 -5.90625 2.125 -11.125q2.125 -5.21875 5.96875 -9.171875q3.859375 -3.96875 8.921875 -6.234375q5.078125 -2.265625 10.984375 -2.265625q5.1875 0 9.4375 1.515625q4.25 1.515625 8.203125 4.828125q0.65625 0.5 0.75 1.1875q0.109375 0.671875 -0.171875 1.296875q-0.28125 0.609375 -0.859375 0.890625q-0.140625 0.578125 -0.71875 0.875q-0.578125 0.28125 -1.34375 0.21875q-0.75 -0.078125 -1.46875 -0.65625q-2.8125 -2.453125 -6.125 -3.640625q-3.3125 -1.1875 -7.703125 -1.1875q-4.671875 0 -8.75 1.875q-4.0625 1.875 -7.15625 5.109375q-3.09375 3.234375 -4.859375 7.484375q-1.765625 4.25 -1.765625 9.0q0 4.90625 1.765625 9.15625q1.765625 4.234375 4.859375 7.484375q3.09375 3.234375 7.15625 5.078125q4.078125 1.828125 8.75 1.828125q3.96875 0 7.484375 -1.296875q3.53125 -1.296875 6.703125 -3.734375q0.859375 -0.734375 1.828125 -0.578125q0.984375 0.140625 1.703125 0.859375q0.71875 0.71875 0.71875 1.875q0 0.578125 -0.15625 1.046875q-0.140625 0.46875 -0.640625 0.96875q-3.671875 3.375 -8.203125 4.78125q-4.53125 1.40625 -9.4375 1.40625zm18.4375 -8.203125l-5.46875 -1.15625l0 -14.46875l-11.234375 0q-1.234375 0 -2.03125 -0.71875q-0.78125 -0.71875 -0.78125 -1.796875q0 -1.09375 0.78125 -1.765625q0.796875 -0.6875 2.03125 -0.6875l13.890625 0q1.21875 0 2.015625 0.765625q0.796875 0.75 0.796875 1.96875l0 17.859375zm14.621399 7.484375q-1.15625 0 -1.984375 -0.78125q-0.828125 -0.796875 -0.828125 -2.03125l0 -50.609375q0 -1.15625 0.828125 -1.984375q0.828125 -0.828125 1.984375 -0.828125q1.140625 0 1.96875 0.828125q0.828125 0.828125 0.828125 1.984375l0 48.09375l28.15625 0q1.15625 0 1.984375 0.765625q0.828125 0.75 0.828125 1.90625q0 1.140625 -0.828125 1.90625q-0.828125 0.75 -1.984375 0.75l-30.953125 0z" fill-rule="nonzero"/></g></svg>